<?xml version="1.0" encoding="UTF-8"?>
<!-- Do not edit this file with editors other than draw.io -->
<!DOCTYPE svg PUBLIC "-//W3C//DTD SVG 1.1//EN" "http://www.w3.org/Graphics/SVG/1.1/DTD/svg11.dtd">
<svg xmlns="http://www.w3.org/2000/svg" xmlns:xlink="http://www.w3.org/1999/xlink" version="1.1" width="1020px" height="560px" viewBox="-0.5 -0.5 1020 560" content="&lt;mxfile host=&quot;app.diagrams.net&quot; agent=&quot;quartz&quot; version=&quot;24.5.3&quot; type=&quot;device&quot;&gt;&lt;diagram id=&quot;spi_nor_edges&quot; name=&quot;spi_nor_edges&quot;&gt;&lt;mxGraphModel dx=&quot;1200&quot; dy=&quot;760&quot; grid=&quot;1&quot; gridSize=&quot;10&quot; guides=&quot;1&quot; tooltips=&quot;1&quot; connect=&quot;1&quot; arrows=&quot;1&quot; fold=&quot;1&quot; page=&quot;1&quot; pageScale=&quot;1&quot; pageWidth=&quot;1020&quot; pageHeight=&quot;560&quot; math=&quot;0&quot; shadow=&quot;0&quot;&gt;&lt;root&gt;&lt;mxCell id=&quot;0&quot;/&gt;&lt;mxCell id=&quot;1&quot; parent=&quot;0&quot;/&gt;&lt;mxCell id=&quot;b1&quot; value=&quot;sclk_divisor = 0: sclk is clk/2, so one sclk half period is a single clk cycle (8ns at 125MHz)&quot; style=&quot;rounded=0;whiteSpace=wrap;html=1;fillColor=none;strokeColor=#9673a6;dashed=1;verticalAlign=top;&quot; vertex=&quot;1&quot; parent=&quot;1&quot;&gt;&lt;mxGeometry x=&quot;20&quot; y=&quot;14&quot; width=&quot;980&quot; height=&quot;40&quot; as=&quot;geometry&quot;/&gt;&lt;/mxCell&gt;&lt;/root&gt;&lt;/mxGraphModel&gt;&lt;/diagram&gt;&lt;/mxfile&gt;">
<defs><marker id="a" markerWidth="10" markerHeight="7" refX="9" refY="3.5" orient="auto"><polygon points="0 0, 10 3.5, 0 7" fill="#333333"/></marker></defs>
<rect width="100%" height="100%" fill="#ffffff"/>
<rect x="20" y="14" width="980" height="40" fill="none" stroke="#9673a6" stroke-dasharray="6 4"/>
<text x="28" y="30" font-family="Helvetica, Arial, sans-serif" font-size="11" font-weight="bold" fill="#9673a6" text-anchor="start">sclk_divisor = 0: sclk is clk/2, so one sclk half period is a single clk cycle (8ns at 125MHz)</text>
<text x="20" y="101.0" font-family="Helvetica, Arial, sans-serif" font-size="12" font-weight="bold" fill="#222222" text-anchor="start">clk</text>
<path d="M150,110 L170,110 L170,84 L190,84 L190,110 L210,110 L210,84 L230,84 L230,110 L250,110 L250,84 L270,84 L270,110 L290,110 L290,84 L310,84 L310,110 L330,110 L330,84 L350,84 L350,110 L370,110 L370,84 L390,84 L390,110 L410,110 L410,84 L430,84 L430,110 L450,110 L450,84 L470,84 L470,110 L490,110 L490,84 L510,84 L510,110 L530,110 L530,84 L550,84 L550,110 L570,110 L570,84 L590,84 L590,110 L610,110 L610,84 L630,84 L630,110 L650,110 L650,84 L670,84 L670,110 L690,110 L690,84 L710,84 L710,110 L730,110 L730,84 L750,84 L750,110 L770,110 L770,84 L790,84 L790,110 L810,110 L810,84 L830,84 L830,110 L850,110 L850,84" fill="none" stroke="#1a1a1a"/>
<text x="20" y="181.0" font-family="Helvetica, Arial, sans-serif" font-size="12" font-weight="bold" fill="#222222" text-anchor="start">sclk (internal)</text>
<path d="M150,190 L170,190 L190,190 L190,164 L210,164 L230,164 L230,190 L250,190 L270,190 L270,164 L290,164 L310,164 L310,190 L330,190 L350,190 L350,164 L370,164 L390,164 L390,190 L410,190 L430,190 L430,164 L450,164 L470,164 L470,190 L490,190 L510,190 L510,164 L530,164 L550,164 L550,190 L570,190 L590,190 L590,164 L610,164 L630,164 L630,190 L650,190 L670,190 L670,164 L690,164 L710,164 L710,190 L730,190 L750,190 L750,164 L770,164 L790,164 L790,190 L810,190 L830,190 L830,164 L850,164" fill="none" stroke="#1a1a1a"/>
<path d="M230,176 L230,282" fill="none" stroke="#d79b00" stroke-dasharray="5 4"/>
<path d="M310,176 L310,282" fill="none" stroke="#d79b00" stroke-dasharray="5 4"/>
<path d="M390,176 L390,282" fill="none" stroke="#d79b00" stroke-dasharray="5 4"/>
<path d="M470,176 L470,282" fill="none" stroke="#d79b00" stroke-dasharray="5 4"/>
<path d="M550,176 L550,282" fill="none" stroke="#d79b00" stroke-dasharray="5 4"/>
<path d="M270.0,176 L270.0,300" fill="none" stroke="#6c8ebf" stroke-dasharray="5 4"/>
<path d="M350.0,176 L350.0,300" fill="none" stroke="#6c8ebf" stroke-dasharray="5 4"/>
<path d="M430.0,176 L430.0,300" fill="none" stroke="#6c8ebf" stroke-dasharray="5 4"/>
<path d="M510.0,176 L510.0,300" fill="none" stroke="#6c8ebf" stroke-dasharray="5 4"/>
<text x="20" y="258" font-family="Helvetica, Arial, sans-serif" font-size="12" font-weight="bold" fill="#222222" text-anchor="start">io_o (write)</text>
<path d="M230,254 L238,240 L302,240 L310,254 L302,268 L238,268 Z" fill="#ffe6cc" stroke="#d79b00"/>
<text x="270.0" y="258" font-family="Helvetica, Arial, sans-serif" font-size="10.5" font-weight="normal" fill="#7a4b00" text-anchor="middle">bit n</text>
<path d="M310,254 L318,240 L382,240 L390,254 L382,268 L318,268 Z" fill="#ffe6cc" stroke="#d79b00"/>
<text x="350.0" y="258" font-family="Helvetica, Arial, sans-serif" font-size="10.5" font-weight="normal" fill="#7a4b00" text-anchor="middle">bit n+1</text>
<path d="M390,254 L398,240 L462,240 L470,254 L462,268 L398,268 Z" fill="#ffe6cc" stroke="#d79b00"/>
<text x="430.0" y="258" font-family="Helvetica, Arial, sans-serif" font-size="10.5" font-weight="normal" fill="#7a4b00" text-anchor="middle">bit n+2</text>
<path d="M470,254 L478,240 L542,240 L550,254 L542,268 L478,268 Z" fill="#ffe6cc" stroke="#d79b00"/>
<text x="510.0" y="258" font-family="Helvetica, Arial, sans-serif" font-size="10.5" font-weight="normal" fill="#7a4b00" text-anchor="middle">bit n+3</text>
<text x="236" y="296" font-family="Helvetica, Arial, sans-serif" font-size="10.5" font-weight="normal" fill="#7a4b00" text-anchor="start">sclk falls: shifter, io_o, io_oe and the io mode all move on this edge</text>
<text x="276.0" y="314" font-family="Helvetica, Arial, sans-serif" font-size="10.5" font-weight="normal" fill="#3a5a8f" text-anchor="start">sclk rises: the part samples io_o here</text>
<text x="20" y="378" font-family="Helvetica, Arial, sans-serif" font-size="12" font-weight="bold" fill="#222222" text-anchor="start">io (read, at</text>
<text x="20" y="392" font-family="Helvetica, Arial, sans-serif" font-size="12" font-weight="bold" fill="#222222" text-anchor="start">capture flop)</text>
<path d="M280,374 L288,360 L352,360 L360,374 L352,388 L288,388 Z" fill="#d5e8d4" stroke="#82b366"/>
<text x="336" y="378" font-family="Helvetica, Arial, sans-serif" font-size="10.5" font-weight="normal" fill="#2f5c1f" text-anchor="middle">bit n</text>
<path d="M360,374 L368,360 L432,360 L440,374 L432,388 L368,388 Z" fill="#d5e8d4" stroke="#82b366"/>
<text x="416" y="378" font-family="Helvetica, Arial, sans-serif" font-size="10.5" font-weight="normal" fill="#2f5c1f" text-anchor="middle">bit n+1</text>
<path d="M440,374 L448,360 L512,360 L520,374 L512,388 L448,388 Z" fill="#d5e8d4" stroke="#82b366"/>
<text x="496" y="378" font-family="Helvetica, Arial, sans-serif" font-size="10.5" font-weight="normal" fill="#2f5c1f" text-anchor="middle">bit n+2</text>
<path d="M520,374 L528,360 L592,360 L600,374 L592,388 L528,388 Z" fill="#d5e8d4" stroke="#82b366"/>
<text x="576" y="378" font-family="Helvetica, Arial, sans-serif" font-size="10.5" font-weight="normal" fill="#2f5c1f" text-anchor="middle">bit n+3</text>
<path d="M230,340 L280,340" fill="none" stroke="#82b366" marker-end="url(#a)"/>
<text x="234" y="334" font-family="Helvetica, Arial, sans-serif" font-size="10.5" font-weight="normal" fill="#3f6b2f" text-anchor="start">round trip: clk to sclk pin, tCLQV, back to the flop</text>
<path d="M310,300 L310,360" fill="none" stroke="#3f6b2f" stroke-dasharray="5 4"/>
<circle cx="310" cy="374" r="4.5" fill="#3f6b2f"/>
<path d="M390,300 L390,360" fill="none" stroke="#3f6b2f" stroke-dasharray="5 4"/>
<circle cx="390" cy="374" r="4.5" fill="#3f6b2f"/>
<path d="M470,300 L470,360" fill="none" stroke="#3f6b2f" stroke-dasharray="5 4"/>
<circle cx="470" cy="374" r="4.5" fill="#3f6b2f"/>
<path d="M550,300 L550,360" fill="none" stroke="#3f6b2f" stroke-dasharray="5 4"/>
<circle cx="550" cy="374" r="4.5" fill="#3f6b2f"/>
<text x="316" y="424" font-family="Helvetica, Arial, sans-serif" font-size="10.5" font-weight="normal" fill="#3f6b2f" text-anchor="start">rx sample point = rx_sample_taps x (clk/2) after the sclk rising edge; taps = 2 is 8ns.</text>
<text x="316" y="442" font-family="Helvetica, Arial, sans-serif" font-size="10.5" font-weight="normal" fill="#3f6b2f" text-anchor="start">It must land inside the shifted cell, so it is placed explicitly rather than taken on the edge.</text>
<text x="20" y="486" font-family="Helvetica, Arial, sans-serif" font-size="11" font-weight="normal" fill="#444444" text-anchor="start">sclk runs only in cs_assert / instruction / addr / dummy / wdata / rdata.  cs_deassert still drives the bus but must not clock:</text>
<text x="20" y="504" font-family="Helvetica, Arial, sans-serif" font-size="11" font-weight="normal" fill="#444444" text-anchor="start">the part counts edges to find the end of an instruction, so a single trailing edge makes an erase or a write enable be discarded.</text>
<text x="20" y="528" font-family="Helvetica, Arial, sans-serif" font-size="11" font-weight="normal" fill="#444444" text-anchor="start">Every pin-facing flop is duplicated with no internal fanout and packed into its IOB, which is what makes the round trip bounded and repeatable.</text>
</svg>
